HIERARCHY
ROOT Hip
{
  OFFSET 72.3188 83.819 95.4355
  CHANNELS 6 Xposition Yposition Zposition Zrotation Xrotation Yrotation
  JOINT Chest
  {
    OFFSET 0 14.1721 0
    CHANNELS 3 Zrotation Xrotation Yrotation
    JOINT LeftCollar
    {
      OFFSET 3.38976 27.3334 -0.528179
      CHANNELS 3 Zrotation Xrotation Yrotation
      JOINT LeftShoulder
      {
        OFFSET 8.75651 -0.38405 0.375729
        CHANNELS 3 rotation Xrotation Yrotation
        JOINT LeftElbow
        {
          OFFSET 10.8329 -21.1098 -6.20377
          CHANNELS 3 Zrotation Xrotation Yrotation
          JOINT LeftWrist
          {
            OFFSET 6.67444 -21.7124 7.44145
            CHANNELS 3 rotation Xrotation Yrotation
            End Site
            {
              OFFSET 0.154337 -12.1352 0.463154
            }
          }
        }
      }
    }
    JOINT RightCollar
    {
      OFFSET -3.20896 27.3334 -0.528179
      CHANNELS 3 rotation Xrotation Yrotation
      JOINT RightShoulder
      {
        OFFSET -8.08379 -0.0046533 -0.0763006
        CHANNELS 3 rotation Xrotation Yrotation
        JOINT RightElbow
        {
          OFFSET -9.56336 -20.9129 -5.57094
          CHANNELS 3 rotation Xrotation Yrotation
          JOINT RightWrist
          {
            OFFSET -7.65118 -21.7887 6.16125
            CHANNELS 3 rotation Xrotation Yrotation
            End Site
            {
              OFFSET -0.352577 -13.3655 -1.08635
            }
          }
        }
      }
    }
    JOINT Neck
    {
      OFFSET 7.5099e-015 27.3334 -0.528179
      CHANNELS 3 rotation Xrotation Yrotation
      JOINT Head
      {
        OFFSET -8.18535e-015 4.8193 0.43049
        CHANNELS 3 rotation Xrotation Yrotation
        End Site
        {
          OFFSET 1.32278e-015 21.6034 1.92975
        }
      }
    }
  }
  JOINT RightHip
  {
    OFFSET -10.5521 -2.37517 1.32006
    CHANNELS 3 rotation Xrotation Yrotation
    JOINT RightKnee
    {
      OFFSET -5.39537 -41.4893 -1.87215
      CHANNELS 3 rotation Xrotation Yrotation
      JOINT RightAnkle
      {
        OFFSET -5.28201 -40.6175 -1.83282
        CHANNELS 3 rotation Xrotation Yrotation
        End Site
        {
          OFFSET -2.48959 -0.570625 19.8206
        }
      }
    }
  }
  JOINT LeftHip
  {
    OFFSET 8.40113 -1.21763 0.699941
    CHANNELS 3 rotation Xrotation Yrotation
    JOINT LeftKnee
    {
      OFFSET 5.46332 -43.1232 -2.23758
      CHANNELS 3 rotation Xrotation Yrotation
      JOINT LeftAnkle
      {
        OFFSET 5.1595 -40.7251 -2.11315
        CHANNELS 3 rotation Xrotation Yrotation
        End Site
        {
          OFFSET 0.458637 -1.02516 20.877
        }
      }
    }
  }
}
MOTION
Frames:	8
Frame Time:	0.0333333
23.8171	84.2647	14.6634	2.49382	10.5597	9.47864	-16.9746	-14.2065	-4.61087	51.7291	-8.05006	-4.70499	-38.0631	10.8098	41.7238	-83.302	24.7581	76.766	34.2855	-42.3028	-155.353	-2.96426	-0.61094	13.7492	144.924	-69.3803	168.553	-44.8263	-25.7346	-17.8623	77.1033	26.4651	-71.5367	7.95E-15	-1.45E-14	-2.20E-14	44.8704	0.688978	-5.78674	8.8211	-18.0408	4.78224	0.401791	18.228	-2.45616	-1.2967	-11.8965	1.48074	-21.6682	2.43867	2.57149	-0.209068	15.1936	1.96167	1.27E-14	8.78E-15	3.85E-14
23.9119	84.3469	14.6356	2.38499	11.2055	10.3446	-17.0499	-15.0272	-4.87327	52.1144	-6.39784	-3.48368	-37.3629	11.1994	40.8271	-85.0724	22.7711	79.485	31.9017	-40.624	-158.078	-3.29472	-0.635347	12.913	149.882	-67.4069	173.487	-44.7119	-20.4567	-15.2202	84.2955	16.6265	-79.3312	-1.11E-14	-1.45E-14	-2.37E-14	44.934	-0.120245	-4.99304	8.41217	-18.3095	4.73767	0.382717	17.804	-2.39506	-1.25798	-11.5014	1.43518	-21.7699	2.24444	2.47652	-0.188615	14.5354	1.87311	-7.95E-15	5.24E-15	4.08E-14
23.9098	84.4805	14.7045	1.78912	11.518	11.4237	-16.3702	-15.9929	-4.93871	51.4143	-7.96178	-4.70206	-36.927	12.6014	41.4492	-86.2215	21.2341	81.3368	27.9952	-40.9044	-160.676	-3.62585	-0.733651	13.4288	153.597	-68.6052	177.372	-45.1356	-18.7959	-14.5883	87.466	10.2409	-82.1374	-1.76E-14	-1.44E-14	-2.54E-14	44.4856	-0.22953	-4.80788	8.58465	-18.1039	4.73155	0.346157	16.9568	-2.27386	-1.17123	-10.626	1.33349	-21.1609	2.20269	2.38364	-0.177545	14.1633	1.82328	-3.06E-15	-4.24E-15	4.29E-14
23.9383	84.5496	14.708	2.23831	11.8588	11.3609	-17.6893	-16.3091	-5.45547	54.2244	-8.33035	-4.42883	-37.8172	13.3539	43.7719	-86.5987	21.5106	82.6812	28.0338	-39.6828	-161.263	-2.33392	-0.549188	15.674	160.617	-69.7088	-175.326	-45.2293	-19.0778	-14.7618	88.223	8.62624	-82.3395	-1.58E-14	-1.43E-14	-2.70E-14	45.688	-0.550664	-4.68524	8.01274	-18.296	4.61779	0.341643	16.8488	-2.25849	-1.16812	-10.5948	1.32986	-21.6608	2.40649	2.55292	-0.150996	13.2181	1.69737	1.59E-15	-3.18E-15	4.50E-14
24.0116	84.5633	14.6424	1.97788	11.6984	11.7628	-16.7501	-16.3396	-5.15841	52.6846	-11.8159	-7.04743	-38.1425	15.2931	46.0365	-86.9524	20.1071	82.5486	26.185	-40.3087	-162.199	-2.53809	-0.698639	18.007	166.346	-71.3857	-169.243	-46.0935	-19.7936	-15.4626	88.4229	8.38002	-81.7637	-8.25E-15	-1.41E-14	-2.86E-14	44.859	-0.736191	-4.36627	8.08913	-18.123	4.59401	0.340432	16.8197	-2.25436	-1.14422	-10.3561	1.30193	-21.414	2.79256	2.73338	-0.138545	12.745	1.63469	-3.18E-15	0	4.70E-14
24.1601	84.4658	14.5876	1.71459	11.8315	11.6831	-16.1053	-15.7533	-4.78901	52.3226	-10.2636	-6.10325	-36.9652	14.5622	43.3106	-87.1001	19.3623	82.3519	25.8154	-40.6267	-162.298	-3.27849	-0.788614	15.7221	160.914	-71.5516	-174.846	-47.0044	-21.0223	-16.4809	88.1034	9.06329	-81.6149	6.36E-15	-1.37E-14	-3.01E-14	44.6774	-2.50299	-2.5851	8.25581	-18.5511	4.75689	0.36177	17.3244	-2.32632	-1.16694	-10.583	1.32848	-21.3875	2.73446	2.69844	-0.132998	12.5271	1.60591	6.36E-15	3.18E-15	4.89E-14
24.349	84.5217	14.5531	1.66478	12.1444	11.6645	-15.5437	-15.9405	-4.66359	50.8444	-10.5225	-6.64979	-36.0081	14.9188	41.9674	-87.0803	18.6067	81.567	24.0419	-41.9554	-162.903	-3.47106	-0.819414	15.4239	157.787	-72.4308	-177.993	-47.5996	-21.9152	-17.2226	87.8292	9.70888	-81.1945	-9.54E-15	-1.33E-14	-3.16E-14	44.2422	-2.80941	-2.24612	8.09376	-19.0063	4.82962	0.377354	17.6826	-2.37763	-1.15578	-10.4714	1.31543	-21.5392	2.34461	2.50454	-0.136661	12.6715	1.62498	-1.11E-14	7.45E-15	5.07E-14
24.5596	84.4637	14.5471	0.819998	11.3295	11.3118	-13.6616	-14.2756	-3.69033	49.941	-10.6276	-6.96143	-35.8828	14.1688	41.098	-86.307	19.2582	79.6417	22.2384	-42.5098	-163.902	-3.44643	-0.726831	13.9537	153.161	-71.3219	177.146	-47.758	-22.619	-17.6792	87.1593	11.331	-79.2071	-8.29E-15	-1.28E-14	-3.31E-14	44.015	-4.32044	-0.760909	9.03044	-18.1488	4.87313	0.363638	17.3678	-2.33252	-1.11223	-10.0382	1.26461	-20.7947	2.84164	2.68066	-0.140329	12.8141	1.64383	-1.29E-14	-5.07E-15	5.24E-14
